<svg width="24" height="22" viewBox="0 0 24 22" fill="none" xmlns="http://www.w3.org/2000/svg">
<path d="M1.45782 7.49208C2.2098 4.60849 4.50735 2.40239 7.39247 1.79366L7.94377 1.67734C10.544 1.12871 13.2281 1.12871 15.8284 1.67734L16.3797 1.79366C19.2648 2.40239 21.5624 4.60849 22.3143 7.49209C22.9248 9.83286 22.9248 12.2938 22.3143 14.6346C21.5624 17.5182 19.2648 19.7243 16.3797 20.333L15.8284 20.4493C13.2281 20.998 10.544 20.998 7.94377 20.4493L7.39247 20.333C4.50735 19.7243 2.2098 17.5182 1.45782 14.6346C0.847393 12.2938 0.847393 9.83285 1.45782 7.49208Z" stroke="white" stroke-width="1.5"/>
<path d="M6.44305 11.0633H8.62027L10.7975 14.3291L15.1519 7.79749L17.3291 11.0633H19.5063" stroke="#0095FF" stroke-width="1.5" stroke-linecap="round" stroke-linejoin="round"/>
</svg>
