<svg width="21" height="22" viewBox="0 0 21 22" fill="none" xmlns="http://www.w3.org/2000/svg">
<path d="M1.47733 7.86675C2.21367 4.6633 4.61367 2.17438 7.67234 1.44221L7.91516 1.38409C9.5609 0.990135 11.2699 0.990136 12.9157 1.38409L13.3306 1.4834C16.2838 2.19034 18.6011 4.59348 19.3121 7.68654L19.4088 8.10732C19.7751 9.70088 19.7751 11.3631 19.4088 12.9567C18.6712 16.1657 15.9375 18.4266 12.7949 18.4266H11.6395C11.2601 18.4266 10.9167 18.6712 10.7724 19.0399C10.2484 20.3796 8.7855 21.0372 7.50845 20.4912L7.37982 20.4362C4.42873 19.1745 2.22886 16.4668 1.48101 13.2133C1.07837 11.4616 1.07469 9.61842 1.47733 7.86675Z" stroke="white" stroke-width="1.5" stroke-linecap="round"/>
</svg>
