<svg width="22" height="22" viewBox="0 0 22 22" fill="none" xmlns="http://www.w3.org/2000/svg">
<path d="M14.1173 1.73864C17.1408 2.44786 19.5016 4.80865 20.2108 7.83218C20.723 10.0157 20.723 12.2882 20.2108 14.4717C19.5016 17.4953 17.1408 19.8561 14.1172 20.5653C11.9337 21.0775 9.66124 21.0775 7.47769 20.5653C4.45416 19.8561 2.09337 17.4953 1.38414 14.4717C0.871952 12.2882 0.871953 10.0157 1.38414 7.83218C2.09336 4.80866 4.45415 2.44786 7.47768 1.73864C9.66124 1.22644 11.9337 1.22644 14.1173 1.73864Z" stroke="#0095FF" stroke-width="1.5"/>
<path d="M10.0474 14.5493C10.0474 14.9635 10.3832 15.2993 10.7974 15.2993C11.2116 15.2993 11.5474 14.9635 11.5474 14.5493H10.0474ZM7.40009 7.00464C6.98587 7.00464 6.65009 7.34043 6.65009 7.75464C6.65009 8.16885 6.98587 8.50464 7.40009 8.50464V7.00464ZM14.1948 8.50464C14.609 8.50464 14.9448 8.16885 14.9448 7.75464C14.9448 7.34043 14.609 7.00464 14.1948 7.00464V8.50464ZM10.0474 7.75464V14.5493H11.5474V7.75464H10.0474ZM10.7974 7.00464H7.40009V8.50464H10.7974V7.00464ZM10.7974 8.50464H14.1948V7.00464H10.7974V8.50464Z" fill="#0095FF"/>
<path d="M14.1173 1.73864C11.9337 1.22644 9.66124 1.22644 7.47768 1.73864C4.45415 2.44786 2.09336 4.80866 1.38414 7.83218C0.871953 10.0157 0.871952 12.2882 1.38414 14.4717C2.09337 17.4953 4.45416 19.8561 7.47769 20.5653C9.66124 21.0775 11.9337 21.0775 14.1173 20.5653C17.1408 19.8561 19.5016 17.4953 20.2108 14.4717" stroke="white" stroke-width="1.5" stroke-linecap="round"/>
</svg>
