<svg width="22" height="22" viewBox="0 0 22 22" fill="none" xmlns="http://www.w3.org/2000/svg">
<path d="M12.7931 2.84333C12.7931 1.93445 12.1288 1.16202 11.2302 1.02591C11.0021 0.991363 10.7701 0.991363 10.542 1.02591C9.64337 1.16202 8.97912 1.93445 8.97912 2.84334V4.12862C8.4657 4.27516 7.97661 4.47939 7.51931 4.73384L6.61009 3.82462C5.96742 3.18195 4.95154 3.10545 4.21987 3.64463C4.03415 3.78149 3.87011 3.94553 3.73325 4.13124C3.19406 4.86292 3.27056 5.87881 3.91324 6.52149L4.82246 7.43071C4.568 7.888 4.36378 8.37709 4.21724 8.8905H2.93196C2.02308 8.8905 1.25064 9.55475 1.11453 10.4534C1.07999 10.6815 1.07999 10.9135 1.11453 11.1416C1.25064 12.0402 2.02307 12.7044 2.93195 12.7044H4.21724C4.36378 13.2179 4.568 13.7069 4.82246 14.1642L3.91324 15.0735C3.27057 15.7161 3.19407 16.732 3.73326 17.4637C3.87011 17.6494 4.03416 17.8135 4.21987 17.9503C4.95154 18.4895 5.96742 18.413 6.6101 17.7703L7.51931 16.8611C7.97661 17.1156 8.4657 17.3198 8.97912 17.4663V18.7516C8.97912 19.6605 9.64337 20.4329 10.542 20.569C10.7701 20.6036 11.0021 20.6036 11.2302 20.569C12.1288 20.4329 12.7931 19.6605 12.7931 18.7516V17.4663C13.3065 17.3198 13.7956 17.1156 14.2529 16.8611L15.1621 17.7703C15.8048 18.413 16.8206 18.4895 17.5523 17.9503C17.738 17.8135 17.9021 17.6494 18.0389 17.4637C18.5781 16.732 18.5016 15.7162 17.8589 15.0735L16.9497 14.1643C17.2042 13.707 17.4084 13.2179 17.555 12.7044H18.8402C19.7491 12.7044 20.5215 12.0402 20.6577 11.1416C20.6922 10.9135 20.6922 10.6815 20.6577 10.4534C20.5215 9.55475 19.7491 8.8905 18.8402 8.8905H17.555C17.4084 8.37708 17.2042 7.88799 16.9497 7.43069L17.859 6.52147C18.5016 5.8788 18.5781 4.86291 18.0389 4.13124C17.9021 3.94553 17.738 3.78149 17.5523 3.64463C16.8207 3.10544 15.8048 3.18194 15.1621 3.82462L14.2529 4.73383C13.7956 4.47938 13.3065 4.27515 12.7931 4.12862V2.84333Z" stroke="#0095FF" stroke-width="1.5" stroke-linecap="round" stroke-linejoin="round"/>
</svg>
